<?xml version="1.0" standalone="no"?>
<!DOCTYPE svg PUBLIC "-//W3C//DTD SVG 20010904//EN"
 "http://www.w3.org/TR/2001/REC-SVG-20010904/DTD/svg10.dtd">
<svg version="1.0" xmlns="http://www.w3.org/2000/svg"
 width="250.000000pt" height="250.000000pt" viewBox="0 0 250.000000 250.000000"
 preserveAspectRatio="xMidYMid meet">
<metadata>
Created by potrace 1.11, written by Peter Selinger 2001-2013
</metadata>
<g transform="translate(0.000000,250.000000) scale(0.100000,-0.100000)"
fill="#000000" stroke="none">
<path d="M1064 2380 c-24 -4 -37 -19 -75 -85 -25 -44 -68 -118 -96 -165 -27
-47 -52 -92 -55 -102 -4 -9 5 -39 21 -70 65 -122 162 -284 181 -299 16 -14 49
-17 212 -17 106 0 201 4 210 9 10 5 30 31 44 57 15 26 59 100 97 166 50 86 68
125 65 145 -2 14 -46 100 -98 189 -73 126 -100 164 -119 169 -31 8 -346 10
-387 3z"/>
<path d="M365 1478 c-46 -16 -84 -58 -98 -108 -18 -63 -17 -1098 1 -1151 16
-45 56 -83 106 -99 30 -10 233 -13 875 -13 460 0 852 4 871 8 19 4 50 19 69
32 65 50 64 41 66 628 0 292 -3 549 -7 573 -10 58 -42 100 -92 123 -39 18 -83
19 -901 18 -571 0 -870 -4 -890 -11z m1706 -220 c0 -29 1 -88 2 -130 2 -61 -1
-78 -13 -80 -13 -3 -1590 -2 -1615 1 -7 1 -12 223 -5 259 0 1 367 2 815 2
l815 0 1 -52z m-26 -693 l0 -230 -792 -1 -793 -1 0 231 0 231 792 0 793 -1 0
-229z"/>
</g>
</svg>
